<?xml version="1.0" standalone="no"?>
<!DOCTYPE svg PUBLIC "-//W3C//DTD SVG 20010904//EN"
 "http://www.w3.org/TR/2001/REC-SVG-20010904/DTD/svg10.dtd">
<svg version="1.0" xmlns="http://www.w3.org/2000/svg"
 width="700.000000pt" height="700.000000pt" viewBox="0 0 700.000000 700.000000"
 preserveAspectRatio="xMidYMid meet">
<metadata>
Created by potrace 1.11, written by Peter Selinger 2001-2013
</metadata>
<g transform="translate(0.000000,700.000000) scale(0.100000,-0.100000)"
fill="#000000" stroke="none">
<path d="M1150 6985 c-172 -38 -286 -98 -410 -214 -91 -87 -182 -245 -216
-376 -25 -96 -25 -293 0 -390 72 -278 290 -498 576 -580 91 -26 297 -26 395
-1 55 15 136 47 207 84 4 2 -8 -29 -26 -70 -57 -127 -70 -188 -70 -338 0 -148
13 -210 64 -324 77 -172 216 -316 383 -395 116 -55 221 -79 348 -79 130 0 234
24 353 83 27 14 51 24 52 22 2 -1 -9 -28 -25 -58 -15 -30 -31 -66 -35 -80 -5
-13 -10 -28 -12 -34 -2 -5 -10 -48 -19 -95 -29 -149 -7 -327 55 -466 103 -230
330 -412 566 -456 35 -6 64 -14 64 -18 0 -4 -28 -12 -63 -18 -236 -44 -463
-225 -564 -450 -55 -124 -73 -215 -68 -357 6 -215 82 -392 233 -542 118 -117
312 -214 449 -225 45 -3 32 -14 -26 -22 -240 -32 -484 -221 -591 -459 -48
-107 -64 -189 -64 -327 -1 -138 10 -195 59 -310 172 -411 655 -602 1061 -420
220 99 389 300 449 536 35 136 26 336 -22 463 -87 235 -272 415 -503 491 -56
18 -139 35 -152 32 -5 -1 -8 3 -8 8 0 6 9 10 20 10 27 0 152 31 165 40 6 4 25
11 43 15 17 3 32 10 32 13 0 4 19 16 42 27 70 33 185 135 248 220 100 134 150
277 155 445 9 270 -100 503 -312 668 -93 72 -244 136 -350 149 -57 6 -70 17
-25 21 50 4 152 33 217 62 221 99 390 300 450 536 42 161 16 434 -49 524 -10
13 -9 13 9 0 11 -8 22 -17 25 -20 3 -3 32 -26 65 -51 74 -57 187 -111 280
-135 130 -33 376 -20 475 26 152 71 201 102 290 190 75 74 177 242 195 323 2
12 11 51 19 86 18 83 14 265 -8 348 -21 78 -66 180 -107 240 -18 26 -26 44
-18 41 114 -48 150 -60 220 -72 45 -8 118 -13 161 -11 78 4 235 38 253 56 5 5
15 9 21 9 31 0 175 101 250 175 96 94 200 285 218 399 3 20 10 54 15 77 16 70
6 265 -18 359 -76 298 -299 530 -582 606 -86 23 -258 27 -346 7 -298 -67 -531
-299 -615 -611 -31 -117 -31 -333 1 -452 26 -97 73 -203 115 -259 14 -19 26
-38 26 -43 0 -4 -24 3 -54 16 -140 62 -332 80 -489 46 -301 -66 -546 -313
-610 -615 -30 -139 -9 -359 43 -468 21 -44 24 -45 -65 29 -141 118 -319 175
-524 169 -130 -4 -215 -24 -322 -77 l-65 -33 23 41 c56 99 85 218 88 356 6
226 -72 423 -231 583 -231 233 -599 300 -896 162 -58 -26 -75 -31 -69 -19 9
21 41 92 51 112 49 101 60 346 22 488 -34 128 -107 255 -202 353 -101 104
-278 201 -410 224 -68 12 -256 12 -310 0z"/>
</g>
</svg>
